# xmcd CD database file
#
# Track frame offsets:
#	150
#	24357
#	48282
#	70365
#	88200
#	111510
#	134227
#	155449
#	179757
#	198984
#	212827
#
# Disc length: 3197 seconds
#
# Revision: 4
# Processed by: cddbd v1.5.2PL0 Copyright (c) Steve Scherf et al.
# Submitted via: CDex 1.51
#
DISCID=aa0c7b0b
DTITLE=Lucky Peterson - Black Midnight Sun
DYEAR=2003
DGENRE=Blues
TTITLE0=Herbert Harper's Free Press News
TTITLE1=Lucky In Love
TTITLE2=Is It Because I'm Black
TTITLE3=Jody's Got Your Girl And Gone
TTITLE4=Smokestacak Lightning
TTITLE5=Black Midnight Sun
TTITLE6=She's A Burglar
TTITLE7=Truly Your Friend
TTITLE8=Talkin' Loud And Saying Nothing
TTITLE9=Changes Your Ways
TTITLE10=Thank You For Talkin' To Me Africa
EXTD=YEAR: 2003
EXTT0=
EXTT1=
EXTT2=
EXTT3=
EXTT4=
EXTT5=
EXTT6=
EXTT7=
EXTT8=
EXTT9=
EXTT10=
PLAYORDER=
